HIERARCHY
ROOT Hips
{
	OFFSET 0.000000 0.000000 0.000000
	CHANNELS 6 Xposition Yposition Zposition Xrotation Yrotation Zrotation
	JOINT LeftUpLeg_virtual
	{
		OFFSET 0.000000 0.000000 0.000000
		CHANNELS 3 Xrotation Yrotation Zrotation
		JOINT LeftUpLeg
		{
			OFFSET 10.205400 -3.823500 0.155100
			CHANNELS 3 Xrotation Yrotation Zrotation
			JOINT LeftLeg
			{
				OFFSET 0.708757 -12.982077 0.567790
				CHANNELS 3 Xrotation Yrotation Zrotation
				JOINT LeftFoot
				{
					OFFSET -0.708756 -10.717838 -2.184338
					CHANNELS 3 Xrotation Yrotation Zrotation
					JOINT LeftToeBase
					{
						OFFSET 0.108149 -7.191104 7.560241
						CHANNELS 3 Xrotation Yrotation Zrotation
						JOINT LeftToe_End
						{
							OFFSET 0.070230 0.081724 4.490308
							CHANNELS 3 Xrotation Yrotation Zrotation
							End Site
							{
								OFFSET 0 0 0
							}
						}
					}
				}
			}
		}
	}
	JOINT RightUpLeg_virtual
	{
		OFFSET 0.000000 0.000000 0.000000
		CHANNELS 3 Xrotation Yrotation Zrotation
		JOINT RightUpLeg
		{
			OFFSET -10.205400 -3.823500 0.005500
			CHANNELS 3 Xrotation Yrotation Zrotation
			JOINT RightLeg
			{
				OFFSET -0.708756 -12.982134 0.610632
				CHANNELS 3 Xrotation Yrotation Zrotation
				JOINT RightFoot
				{
					OFFSET 0.708754 -10.717769 -1.945823
					CHANNELS 3 Xrotation Yrotation Zrotation
					JOINT RightToeBase
					{
						OFFSET -0.108140 -7.191069 7.372968
						CHANNELS 3 Xrotation Yrotation Zrotation
						JOINT RightToe_End
						{
							OFFSET -0.070227 0.081735 4.479403
							CHANNELS 3 Xrotation Yrotation Zrotation
							End Site
							{
								OFFSET 0 0 0
							}
						}
					}
				}
			}
		}
	}
	JOINT Spine_virtual
	{
		OFFSET 0.000000 0.000000 0.000000
		CHANNELS 3 Xrotation Yrotation Zrotation
		JOINT Spine
		{
			OFFSET 0.000000 6.876099 0.125700
			CHANNELS 3 Xrotation Yrotation Zrotation
			JOINT Spine1
			{
				OFFSET 0.000000 5.730043 0.104720
				CHANNELS 3 Xrotation Yrotation Zrotation
				JOINT Spine1_split
				{
					OFFSET 0.000000 5.730043 0.104720
					CHANNELS 3 Xrotation Yrotation Zrotation
					JOINT Spine2
					{
						OFFSET 0.000000 5.730043 0.104720
						CHANNELS 3 Xrotation Yrotation Zrotation
						JOINT Neck_virtual
						{
							OFFSET 0.000000 0.000000 0.000000
							CHANNELS 3 Xrotation Yrotation Zrotation
							JOINT Neck
							{
								OFFSET 0.000000 10.314075 0.188496
								CHANNELS 3 Xrotation Yrotation Zrotation
								JOINT Head
								{
									OFFSET 0.000000 7.643700 -2.377400
									CHANNELS 3 Xrotation Yrotation Zrotation
									JOINT HeadTop_End
									{
										OFFSET 0.000000 43.788605 -13.619600
										CHANNELS 3 Xrotation Yrotation Zrotation
										End Site
										{
											OFFSET 0 0 0
										}
									}
								}
							}
						}
						JOINT LeftShoulder_virtual
						{
							OFFSET 0.000000 0.000000 0.000000
							CHANNELS 3 Xrotation Yrotation Zrotation
							JOINT LeftShoulder
							{
								OFFSET 2.196100 4.412489 0.087492
								CHANNELS 3 Xrotation Yrotation Zrotation
								JOINT LeftShoulder_split
								{
									OFFSET 2.196100 4.412489 0.087492
									CHANNELS 3 Xrotation Yrotation Zrotation
									JOINT LeftArm
									{
										OFFSET 8.771219 -2.981674 -0.026999
										CHANNELS 3 Xrotation Yrotation Zrotation
										JOINT LeftForeArm
										{
											OFFSET 8.512804 0.000000 -0.000000
											CHANNELS 3 Xrotation Yrotation Zrotation
											JOINT LeftHand
											{
												OFFSET 18.484802 0.000000 -0.000000
												CHANNELS 3 Xrotation Yrotation Zrotation
												End Site
												{
													OFFSET 0 0 0
												}
											}
										}
									}
								}
							}
						}
						JOINT RightShoulder_virtual
						{
							OFFSET 0.000000 0.000000 0.000000
							CHANNELS 3 Xrotation Yrotation Zrotation
							JOINT RightShoulder
							{
								OFFSET -2.196100 4.412496 0.070690
								CHANNELS 3 Xrotation Yrotation Zrotation
								JOINT RightShoulder_split
								{
									OFFSET -2.196100 4.412496 0.070690
									CHANNELS 3 Xrotation Yrotation Zrotation
									JOINT RightArm
									{
										OFFSET -8.771282 -2.981682 -0.094208
										CHANNELS 3 Xrotation Yrotation Zrotation
										JOINT RightForeArm
										{
											OFFSET -8.494598 0.000000 0.000000
											CHANNELS 3 Xrotation Yrotation Zrotation
											JOINT RightHand
											{
												OFFSET -18.483803 0.000000 0.000001
												CHANNELS 3 Xrotation Yrotation Zrotation
												End Site
												{
													OFFSET 0 0 0
												}
											}
										}
									}
								}
							}
						}
					}
				}
			}
		}
	}
}
MOTION
Frames: 6
Frame Time: 0.03333333
-1.587855 33.318623 -1.733005 0.000000 0.000000 0.000000 -8.417305 -2.941226 7.933084 4.648398 14.083860 -7.492435 12.805931 1.803593 -2.195746 -5.713807 -1.097462 -0.944535 -4.392101 0.310139 0.111602 0.000000 0.000000 0.000000 -8.375283 -2.263710 7.777367 -2.513689 -9.703137 -28.699041 32.462417 8.125047 6.213896 -20.798107 -16.174219 5.521725 -5.843966 0.120670 -0.659800 0.000000 0.000000 0.000000 -8.576245 -4.229357 7.321029 2.835458 -1.006264 -5.914021 3.918380 2.046017 -3.626807 2.081539 -1.725542 1.862878 0.000000 0.000000 0.000000 3.439187 1.648819 -3.363298 -1.658517 -2.086124 -5.461896 -0.649550 -12.593690 3.726205 0.000000 0.000000 0.000000 3.048565 1.382217 -3.693291 5.420217 -8.111334 -16.992923 -5.102767 4.434315 -6.000667 19.518802 -0.850906 -46.727455 0.850508 -41.821173 -5.098767 0.000000 0.000000 0.000000 1.832127 1.783146 -2.412226 8.505783 5.124969 4.241188 -0.732981 4.971001 1.476211 -0.128020 -7.922809 69.437636 17.460494 32.345833 2.582697 0.000000 0.000000 0.000000 
-1.827528 33.448101 -1.353587 0.000000 0.000000 0.000000 -8.458903 -2.840920 7.672475 4.366847 13.112687 -6.905881 13.526289 1.765634 -2.040198 -4.947727 -0.678173 -0.674490 -5.386170 0.225936 0.374870 0.000000 0.000000 0.000000 -8.395917 -2.057710 7.613210 -1.321784 -10.381524 -28.050679 31.107554 7.707014 5.648643 -20.660231 -15.494274 7.453044 -7.703182 0.152109 -0.791751 0.000000 0.000000 0.000000 -8.869579 -3.930816 6.749526 2.704480 -1.018956 -6.006369 4.819035 2.068937 -3.299454 1.852855 -1.042889 1.914376 0.000000 0.000000 0.000000 4.169645 1.748339 -3.107265 -2.469362 -1.954054 -5.143511 -2.421949 -11.203059 3.397743 0.000000 0.000000 0.000000 4.090521 1.419011 -3.271260 5.655137 -8.906714 -15.151422 -3.019980 2.355777 -3.330780 20.494616 -3.693877 -48.044848 0.742517 -43.041516 -4.962320 0.000000 0.000000 0.000000 2.532042 1.842847 -2.189451 7.914910 5.644901 4.343345 -1.050626 5.848011 1.220490 0.249877 -5.089342 68.147366 18.185319 35.907015 1.541299 0.000000 0.000000 0.000000 
-2.075322 33.684879 -1.092697 0.000000 0.000000 0.000000 -8.704864 -2.809581 7.195634 4.176587 12.056609 -6.278944 14.475654 1.533734 -1.906780 -4.479708 0.145395 0.167508 -6.664955 0.137732 0.772580 0.000000 0.000000 0.000000 -8.478625 -1.973213 7.226383 -0.043452 -10.983817 -27.131123 28.931496 6.745442 4.807513 -20.095393 -14.425493 8.636069 -7.695520 0.193081 -0.802768 0.000000 0.000000 0.000000 -9.242720 -3.615458 5.848511 2.766330 -0.715007 -5.925058 6.393340 2.103917 -2.685528 1.451627 -0.500692 1.458808 0.000000 0.000000 0.000000 5.860383 1.909395 -2.604951 -4.880022 -1.590908 -5.281772 -4.697574 -9.414235 2.614417 0.000000 0.000000 0.000000 5.839651 1.642600 -2.589927 5.747374 -10.539738 -12.259657 -0.839524 0.891185 -1.665936 25.224259 -8.963145 -45.899284 -3.033872 -48.911261 -6.211078 0.000000 0.000000 0.000000 4.137200 1.955794 -1.751783 7.295106 6.458783 3.982999 -1.242558 6.289931 1.172565 2.052921 0.667783 65.649531 20.318402 38.865901 -2.106985 0.000000 0.000000 0.000000 
-2.247438 33.932686 -0.943590 0.000000 0.000000 0.000000 -9.079343 -2.880975 6.593151 4.104192 11.270260 -5.829962 15.546006 1.166202 -1.866221 -4.301195 1.338339 1.405157 -7.451059 0.088045 1.019863 0.000000 0.000000 0.000000 -8.530467 -1.921590 6.729932 0.214576 -11.076230 -26.340573 27.695206 5.708207 4.008972 -18.179988 -13.180808 9.616919 -6.821961 0.210680 -0.784740 0.000000 0.000000 0.000000 -9.809921 -3.304001 4.904555 3.165056 -0.252667 -5.713592 8.379694 2.096486 -1.905079 1.039838 -0.878380 1.352076 0.000000 0.000000 0.000000 8.195401 2.017666 -1.967175 -8.363780 -0.911147 -5.804758 -7.435289 -7.244422 1.390679 0.000000 0.000000 0.000000 7.895471 1.927376 -1.809790 5.711082 -12.850945 -8.741152 0.541747 0.591670 -2.417715 32.128298 -14.219768 -40.496499 -10.902917 -58.281806 -9.470118 0.000000 0.000000 0.000000 6.377943 2.049685 -1.207502 6.555434 7.645609 3.516919 -1.162081 5.910641 1.084406 5.098798 6.996406 61.969343 23.640803 41.132816 -7.997046 0.000000 0.000000 0.000000 
-2.370065 34.182697 -0.858627 0.000000 0.000000 0.000000 -9.537832 -2.863871 5.986905 3.952295 10.921932 -5.522883 16.453642 0.506038 -2.010298 -3.940093 2.619261 2.228428 -7.803477 0.127378 1.098399 0.000000 0.000000 0.000000 -8.529608 -1.748303 6.169788 -1.291033 -10.281297 -25.975911 29.240737 5.283864 3.434954 -14.489003 -11.798796 11.423713 -6.834620 0.212938 -0.818707 0.000000 0.000000 0.000000 -10.458711 -2.924702 4.115494 3.884499 0.127247 -5.420331 10.456693 2.008203 -1.145884 -0.079224 -1.108002 1.014753 0.000000 0.000000 0.000000 10.770009 1.983056 -1.347273 -12.069069 0.082677 -6.541595 -10.709210 -4.906185 -0.198445 0.000000 0.000000 0.000000 9.957921 2.127577 -1.120177 5.565720 -15.669880 -5.380013 1.511011 0.680366 -4.845779 39.986615 -17.785621 -32.892774 -22.413476 -68.560387 -15.186861 0.000000 0.000000 0.000000 8.866429 2.044243 -0.694062 5.784948 9.358024 3.614537 -1.230755 5.002941 0.497885 9.100063 12.113940 57.150034 27.734704 43.677287 -15.730781 0.000000 0.000000 0.000000 
-2.411983 34.472378 -0.925632 0.000000 0.000000 0.000000 -9.871960 -2.709574 5.470134 3.629632 11.003347 -5.278622 17.016127 -0.369946 -2.279220 -2.846687 3.727940 2.555831 -8.113840 0.212607 1.095985 0.000000 0.000000 0.000000 -8.443622 -1.329588 5.583244 -4.678953 -8.284797 -25.797076 34.241398 5.658422 2.731249 -10.358406 -10.240801 13.509877 -7.768631 0.205787 -0.888554 0.000000 0.000000 0.000000 -10.879208 -2.515664 3.591763 4.813472 0.298135 -5.114677 12.331026 1.809776 -0.595787 -1.250084 -1.306678 0.803130 0.000000 0.000000 0.000000 13.154651 1.828568 -0.873449 -15.079924 1.306550 -7.393975 -14.341179 -2.680032 -1.842709 0.000000 0.000000 0.000000 11.754312 2.202277 -0.624255 5.252083 -18.879568 -3.045066 1.880591 0.669841 -7.955193 47.827245 -18.901305 -24.679984 -36.244897 -77.826877 -23.019879 0.000000 0.000000 0.000000 11.109533 1.948035 -0.324833 4.988914 11.645391 4.808541 -1.095894 4.171018 -0.759892 13.014095 14.295712 51.403027 32.597372 47.473223 -25.070044 0.000000 0.000000 0.000000 
